<!--?xml version="1.0" standalone="no"?-->
              <svg id="sw-js-blob-svg" viewBox="0 0 100 100" xmlns="http://www.w3.org/2000/svg" version="1.1">
                    <defs> 
                        <linearGradient id="sw-gradient" x1="0" x2="1" y1="1" y2="0">
                            <stop id="stop1" stop-color="rgba(93, 124, 233, 1)" offset="0%"></stop>
                            <stop id="stop2" stop-color="rgba(67, 76, 127, 1)" offset="100%"></stop>
                        </linearGradient>
                    </defs>
                <path fill="url(#sw-gradient)" d="M15.5,-27.6C18.7,-25.1,18.8,-18,23,-12.6C27.3,-7.3,35.6,-3.6,37.8,1.3C40.1,6.3,36.3,12.5,31.3,16.6C26.4,20.6,20.2,22.5,14.8,27C9.4,31.5,4.7,38.5,-0.6,39.6C-6,40.7,-11.9,35.8,-17.4,31.4C-22.8,26.9,-27.7,22.9,-29,17.7C-30.3,12.6,-27.9,6.3,-28,-0.1C-28.2,-6.5,-31,-13,-28.7,-16.4C-26.5,-19.9,-19.2,-20.3,-13.6,-21.4C-8,-22.6,-4,-24.5,1.1,-26.4C6.2,-28.3,12.4,-30.2,15.5,-27.6Z" width="100%" height="100%" transform="translate(50 50)" stroke-width="0" style="transition: all 0.3s ease 0s;" stroke="url(#sw-gradient)"></path>
              </svg>